<?xml version="1.0" standalone="no"?><!DOCTYPE svg PUBLIC "-//W3C//DTD SVG 1.1//EN" "http://www.w3.org/Graphics/SVG/1.1/DTD/svg11.dtd"><svg t="1628487541948" class="icon" viewBox="0 0 1024 1024" version="1.1" xmlns="http://www.w3.org/2000/svg" p-id="1139" xmlns:xlink="http://www.w3.org/1999/xlink" width="200" height="200"><defs><style type="text/css"></style></defs><path d="M396.416 455.424l0.298667 150.997333a21.333333 21.333333 0 0 0 21.376 21.333334l150.656-0.298667a21.333333 21.333333 0 0 0 15.061333-6.229333l275.754667-275.754667A21.333333 21.333333 0 0 1 896 360.533333V853.333333a42.666667 42.666667 0 0 1-42.666667 42.666667H170.666667a42.666667 42.666667 0 0 1-42.666667-42.666667V170.666667a42.666667 42.666667 0 0 1 42.666667-42.666667h492.8a21.333333 21.333333 0 0 1 15.061333 36.437333l-275.84 275.84a21.333333 21.333333 0 0 0-6.272 15.146667z m507.776-275.2l-361.984 361.984-60.245333 0.128-0.085334-60.458667 361.941334-362.069333a42.666667 42.666667 0 1 1 60.373333 60.416z" fill="#FDB344" p-id="1140"></path></svg>